<?xml version="1.0" encoding="UTF-8"?>
<svg version="1.1" xmlns="http://www.w3.org/2000/svg" width="58" height="58">
<path d="M0 0 C5.71292221 0.6721085 9.46810027 3.38747397 13.375 7.5 C15 10 15 10 15 14 C14.32710937 14.19851562 13.65421875 14.39703125 12.9609375 14.6015625 C11.99027344 15.29378906 11.99027344 15.29378906 11 16 C11.12331709 18.13162395 11.34923616 20.25769462 11.625 22.375 C11.49288583 27.29371206 11.49288583 27.29371206 10 30 C3.75137606 35.42955929 -6.1865406 41.35250013 -14.52734375 42.28149414 C-17.44881263 41.94890591 -19.271348 41.0717613 -21.828125 39.62890625 C-23.15070312 38.89124023 -23.15070312 38.89124023 -24.5 38.13867188 C-25.4075 37.61853516 -26.315 37.09839844 -27.25 36.5625 C-28.17296875 36.04623047 -29.0959375 35.52996094 -30.046875 34.99804688 C-36.80133929 31.19866071 -36.80133929 31.19866071 -38 30 C-38.20480471 26.44094931 -38.31968712 22.88361186 -38.42578125 19.3203125 C-38.67340862 15.92398425 -38.67340862 15.92398425 -41.04296875 14.0546875 C-41.68878906 13.70664062 -42.33460937 13.35859375 -43 13 C-42.42194191 9.0981079 -40.644973 6.86538742 -38 4 C-34.54072205 1.49202349 -33.38746624 1 -29 1 C-29.66 2.65 -30.32 4.3 -31 6 C-28.63508245 7.37502203 -26.26071484 8.72444458 -23.875 10.0625 C-23.20984375 10.45244141 -22.5446875 10.84238281 -21.859375 11.24414062 C-18.64569688 13.02426625 -16.62787481 14.00632619 -12.8984375 13.96875 C-9.5219326 12.84021467 -6.77232235 11.31695925 -3.75 9.4375 C1.81086519 6 1.81086519 6 4 6 C4 5.34 4 4.68 4 4 C2.68 3.67 1.36 3.34 0 3 C0 2.01 0 1.02 0 0 Z M7 7 C5.0190686 7.80576351 5.0190686 7.80576351 2.8671875 9.08984375 C2.06152344 9.54423828 1.25585938 9.99863281 0.42578125 10.46679688 C-0.41597656 10.95212891 -1.25773437 11.43746094 -2.125 11.9375 C-2.97449219 12.41896484 -3.82398438 12.90042969 -4.69921875 13.39648438 C-6.80365011 14.59057183 -8.90355191 15.79196837 -11 17 C-9.35 18.65 -7.7 20.3 -6 22 C2.415 17.05 2.415 17.05 11 12 C9.5 8 9.5 8 7 7 Z M-37 8 C-37.66 9.32 -38.32 10.64 -39 12 C-33.39 15.3 -27.78 18.6 -22 22 C-20.35 20.35 -18.7 18.7 -17 17 C-19.76543196 15.48987869 -22.53816807 13.99369852 -25.3125 12.5 C-26.09818359 12.07074219 -26.88386719 11.64148438 -27.69335938 11.19921875 C-28.8293457 10.59013672 -28.8293457 10.59013672 -29.98828125 9.96875 C-30.68477783 9.59169922 -31.38127441 9.21464844 -32.09887695 8.82617188 C-34.11309071 7.80071877 -34.11309071 7.80071877 -37 8 Z M-35 18 C-35 21.3 -35 24.6 -35 28 C-33.02 28.99 -33.02 28.99 -31 30 C-31 27.69 -31 25.38 -31 23 C-27.70794116 23.95103922 -24.79540368 24.99047395 -22 27 C-20.90524095 30.02883338 -20.82921083 32.80282667 -21 36 C-19.02 36.66 -17.04 37.32 -15 38 C-15 33.05 -15 28.1 -15 23 C-14.34 23 -13.68 23 -13 23 C-13 27.95 -13 32.9 -13 38 C-7.91095412 36.34590888 -7.91095412 36.34590888 -3.3515625 34.0546875 C-2.73925781 33.70019531 -2.12695312 33.34570312 -1.49609375 32.98046875 C-0.56990234 32.43326172 -0.56990234 32.43326172 0.375 31.875 C1.33599609 31.31619141 1.33599609 31.31619141 2.31640625 30.74609375 C3.88048477 29.83565998 5.44065534 28.91851809 7 28 C7 24.7 7 21.4 7 18 C6.19175781 18.44472656 5.38351563 18.88945313 4.55078125 19.34765625 C3.48214844 19.91355469 2.41351563 20.47945312 1.3125 21.0625 C-0.27111328 21.91521484 -0.27111328 21.91521484 -1.88671875 22.78515625 C-5.25246602 24.0985156 -6.63990972 24.18313038 -10 23 C-11.8125 21.4375 -11.8125 21.4375 -13 20 C-15.46800047 21.15173355 -17.04783565 22.04783565 -19 24 C-24.93090313 23.85172742 -29.8910431 20.73622 -35 18 Z M-28 28 C-27.67 29.65 -27.34 31.3 -27 33 C-26.01 33.33 -25.02 33.66 -24 34 C-24 32.35 -24 30.7 -24 29 C-25.32 28.67 -26.64 28.34 -28 28 Z " fill="#000000" transform="translate(43,16)"/>
<path d="M0 0 C0.66 0.33 1.32 0.66 2 1 C2.66 0.67 3.32 0.34 4 0 C11.07308378 -0.57040998 11.07308378 -0.57040998 14.4375 1.5 C16.57510772 4.92017235 17.28392327 8.02507428 17 12 C14.51856944 18.42916099 9.96283022 22.5956521 4 26 C0.35350914 26.44650908 -1.07072075 25.64088224 -4.0390625 23.59375 C-8.6542341 19.90161272 -11.46391227 16.73472753 -13 11 C-12.93389589 7.09985745 -12.54165335 4.84497922 -10.4375 1.5625 C-6.80784967 -0.76419893 -4.27291629 -0.34459002 0 0 Z M-8.875 4.625 C-10.49174073 8.03811933 -10.24192076 9.41222892 -9 13 C-5.92935717 17.29729649 -2.91151919 20.87492768 2 23 C7.3134728 19.78720249 11.7672474 16.45170729 13.9375 10.375 C14.01407511 7.4651459 13.91268247 6.23146288 12 4 C8.43793339 3.18129815 8.43793339 3.18129815 5 3 C4.01 4.485 4.01 4.485 3 6 C-0.875 4.125 -0.875 4.125 -2 3 C-5.12235684 2.58916357 -6.45200499 2.52507099 -8.875 4.625 Z " fill="#000000" transform="translate(27,0)"/>
<path d="M0 0 C1.32 0.33 2.64 0.66 4 1 C4 1.66 4 2.32 4 3 C2.68 3 1.36 3 0 3 C0 4.32 0 5.64 0 7 C-0.99 7 -1.98 7 -3 7 C-3 5.68 -3 4.36 -3 3 C-2.34 3 -1.68 3 -1 3 C-0.67 2.01 -0.34 1.02 0 0 Z " fill="#000000" transform="translate(8,4)"/>
<path d="M0 0 C0.99 0.33 1.98 0.66 3 1 C2.67 2.32 2.34 3.64 2 5 C1.34 5 0.68 5 0 5 C0 5.66 0 6.32 0 7 C-1.32 7 -2.64 7 -4 7 C-4 6.01 -4 5.02 -4 4 C-2.68 4 -1.36 4 0 4 C0 2.68 0 1.36 0 0 Z " fill="#000000" transform="translate(5,0)"/>
<path d="M0 0 C2.475 0.495 2.475 0.495 5 1 C4.67 1.66 4.34 2.32 4 3 C2.68 3 1.36 3 0 3 C0 2.01 0 1.02 0 0 Z " fill="#000000" transform="translate(47,10)"/>
<path d="M0 0 C0.99 0 1.98 0 3 0 C3 1.32 3 2.64 3 4 C2.01 4 1.02 4 0 4 C0 2.68 0 1.36 0 0 Z " fill="#000000" transform="translate(51,13)"/>
<path d="M0 0 C1.32 0 2.64 0 4 0 C4 0.99 4 1.98 4 3 C2.68 3 1.36 3 0 3 C0 2.01 0 1.02 0 0 Z " fill="#000000" transform="translate(54,10)"/>
<path d="M0 0 C0.99 0 1.98 0 3 0 C3 1.32 3 2.64 3 4 C2.01 4 1.02 4 0 4 C0 2.68 0 1.36 0 0 Z " fill="#000000" transform="translate(51,6)"/>
</svg>
